#!OML:ASF H:\Terrain\Patient Classification 1\Walking\liu\liu.ASF
:FULLY-SPECIFIED
:DEGREES
227
root 8.689750 16.200500 -5.266350 10.385900 -4.120000 -8.027290
lowerback -94.318199 30.701200 46.574600
upperback -15.128599 34.493698 38.878101
thorax 37.415199 17.481901 18.657700
lowerneck -162.503998 -60.089302 -139.427994
upperneck 155.496002 -77.475601 149.313004
head 86.863205 -31.064201 64.535202
rclavicle 0.000000 0.000000
rhumerus -409.947021 137.128006 -869.179993
rradius 514.542969
rwrist -251.152985
rhand -318.407013 -300.972992
rfingers 71.250198
rthumb -50.949600 -600.161011
lclavicle 0.000000 0.000000
lhumerus -519.755981 -81.930099 944.329956
lradius 239.416992
lwrist 40.141502
lhand -66.219604 -236.774002
lfingers 71.250198
lthumb 192.343994 53.913998
rfemur 174.958984 73.836899 315.247986
rtibia 0.000000
rfoot -106.365005 77.415802
rtoes -124.455994
lfemur -480.937012 55.144802 -124.250000
ltibia 284.195984
lfoot -64.936401 127.207001
ltoes -142.143997
228
root 8.711260 16.180401 -5.090830 10.541300 -4.256970 -7.881680
lowerback -94.740105 30.385399 44.234802
upperback -15.303101 34.341900 37.636902
thorax 37.406200 17.383900 18.659500
lowerneck -165.731995 -59.877098 -137.750992
upperneck 155.524002 -77.232399 149.453003
head 87.360092 -30.705799 64.307098
rclavicle 0.000000 0.000000
rhumerus -410.644989 134.712006 -871.708984
rradius 510.630005
rwrist -248.287994
rhand -321.621033 -308.467987
rfingers 71.250198
rthumb -54.052101 -607.578003
lclavicle 0.000000 0.000000
lhumerus -516.799988 -77.566803 936.524963
lradius 237.207001
lwrist 29.106400
lhand -77.868896 -238.973007
lfingers 71.250198
lthumb 181.138992 52.792301
rfemur 180.119003 73.433601 312.372009
rtibia -0.000000
rfoot -103.907005 77.754402
rtoes -138.493011
lfemur -487.445007 66.618599 -133.605011
ltibia 296.748016
lfoot -38.978001 118.268997
ltoes -129.329010
229
root 8.733130 16.136499 -4.934440 10.597700 -4.272230 -7.664410
lowerback -91.486099 29.159700 40.478500
upperback -16.846401 33.445801 36.782402
thorax 33.824600 16.875900 19.482500
lowerneck -164.300003 -59.210400 -137.636993
upperneck 154.610992 -76.648399 150.610992
head 86.750298 -30.384501 64.778099
rclavicle 0.000000 -0.000000
rhumerus -413.401978 132.889008 -874.209961
rradius 508.184998
rwrist -246.632004
rhand -320.751984 -319.953979
rfingers 71.250198
rthumb -53.213100 -619.085999
lclavicle 0.000000 -0.000000
lhumerus -517.119019 -75.532898 932.552002
lradius 235.084000
lwrist 23.357401
lhand -88.398705 -241.214005
lfingers 71.250198
lthumb 171.005997 51.460098
rfemur 185.720001 71.539398 309.132019
rtibia -0.000000
rfoot -95.198807 77.996399
rtoes -135.110992
lfemur -494.054993 74.288498 -141.466995
ltibia 311.054993
lfoot -20.621399 111.302994
ltoes -138.593002
230
root 8.757810 16.123199 -4.767910 10.706700 -4.254930 -7.408520
lowerback -90.076103 28.460800 36.891502
upperback -18.441700 33.076702 35.880898
thorax 31.234701 16.646000 20.348400
lowerneck -164.554001 -59.410900 -137.643005
upperneck 155.841003 -77.026299 150.552994
head 87.266602 -30.549500 64.739601
rclavicle -0.000000 -0.000000
rhumerus -419.920990 130.740005 -875.314026
rradius 510.015991
rwrist -247.388000
rhand -315.863007 -323.580994
rfingers 71.250198
rthumb -48.493000 -622.825989
lclavicle -0.000000 -0.000000
lhumerus -518.182007 -77.515800 932.843018
lradius 233.076996
lwrist 23.331799
lhand -85.228104 -235.123001
lfingers 71.250198
lthumb 174.057007 57.283901
rfemur 189.942001 69.484703 304.783997
rtibia 0.000000
rfoot -86.451996 77.618500
rtoes -112.284004
lfemur -498.330994 76.734398 -146.436005
ltibia 324.931000
lfoot -8.029110 108.702003
ltoes -131.929993
231
root 8.783990 16.115200 -4.579960 10.738400 -4.247920 -7.297120
lowerback -91.590698 27.596100 35.615101
upperback -17.573799 31.941700 34.965702
thorax 32.969101 16.083900 20.090302
lowerneck -168.159012 -59.483902 -135.955002
upperneck 156.804001 -77.128098 150.076996
head 88.172905 -30.385599 64.261795
rclavicle 0.000000 0.000000
rhumerus -422.365997 128.121994 -877.046997
rradius 508.768005
rwrist -245.979004
rhand -313.286987 -336.963989
rfingers 71.250198
rthumb -46.005501 -636.263977
lclavicle 0.000000 0.000000
lhumerus -514.606995 -76.106903 929.729004
lradius 229.060989
lwrist 21.349899
lhand -104.358994 -252.274002
lfingers 71.250198
lthumb 155.638000 41.663799
rfemur 195.792007 67.681595 301.774017
rtibia -0.000000
rfoot -80.167000 77.126900
rtoes -111.743004
lfemur -500.141968 79.941002 -150.330994
ltibia 337.883972
lfoot 1.777120 101.919006
ltoes -126.218002
232
root 8.812750 16.101601 -4.391820 10.783500 -4.202000 -6.991240
lowerback -93.798401 26.032700 32.898602
upperback -17.008701 30.028702 33.364899
thorax 34.743301 15.120400 19.844900
lowerneck -171.681000 -59.418999 -135.464005
upperneck 158.139008 -77.014099 150.667999
head 89.256500 -30.096100 64.428299
rclavicle -0.000000 0.000000
rhumerus -424.425018 126.149994 -879.332947
rradius 505.045013
rwrist -243.341995
rhand -308.740997 -349.653992
rfingers 71.250198
rthumb -41.616001 -649.045044
lclavicle -0.000000 0.000000
lhumerus -510.606995 -72.490700 924.266968
lradius 224.055008
lwrist 15.361700
lhand -80.422897 -243.649994
lfingers 71.250198
lthumb 178.681000 48.341698
rfemur 201.509003 65.230194 296.798004
rtibia -0.000000
rfoot -70.789497 76.232300
rtoes -114.744995
lfemur -503.618011 84.261307 -157.812988
ltibia 352.037994
lfoot 8.435190 91.022102
ltoes -109.807999
233
root 8.841380 16.089399 -4.220670 10.922200 -4.004600 -6.641330
lowerback -93.014297 24.882601 30.044899
upperback -19.628500 29.001999 31.811901
thorax 31.531300 14.573000 19.562901
lowerneck -170.253998 -59.825001 -136.638000
upperneck 158.472000 -77.428596 150.363998
head 89.207199 -30.449200 64.478104
rclavicle -0.000000 0.000000
rhumerus -433.557007 123.774994 -880.585999
rradius 505.028992
rwrist -243.684998
rhand -301.550995 -354.166992
rfingers 71.250198
rthumb -34.672699 -653.682007
lclavicle -0.000000 0.000000
lhumerus -511.641998 -73.232498 921.682983
lradius 222.171997
lwrist 11.559000
lhand -65.354401 -240.867996
lfingers 71.250198
lthumb 193.175995 49.737503
rfemur 205.104004 61.368198 291.588013
rtibia 0.000000
rfoot -59.273602 74.069397
rtoes -137.977997
lfemur -508.157990 84.270294 -164.069992
ltibia 364.740967
lfoot 12.084800 83.029701
ltoes -86.181404
234
root 8.896900 16.086500 -3.972280 10.795700 -4.247930 -6.255990
lowerback -97.849503 25.174900 29.389099
upperback -19.406900 29.233999 30.311100
thorax 34.484001 14.688999 18.651600
lowerneck -167.707001 -59.958199 -137.884003
upperneck 157.059998 -77.357101 149.914001
head 88.283195 -30.649399 64.512001
rclavicle 0.000000 0.000000
rhumerus -440.177002 118.823006 -879.613037
rradius 501.262024
rwrist -240.386017
rhand -293.987000 -358.032990
rfingers 71.250198
rthumb -27.367201 -657.655029
lclavicle 0.000000 0.000000
lhumerus -512.500000 -70.199402 918.432007
lradius 220.552994
lwrist 4.673040
lhand -67.412498 -241.903992
lfingers 71.250198
lthumb 191.196991 48.898602
rfemur 214.683990 61.725899 283.776001
rtibia -0.000000
rfoot -52.098000 73.525703
rtoes -156.766006
lfemur -504.842987 86.211700 -171.667007
ltibia 378.165009
lfoot 3.417620 76.852104
ltoes -75.203400
235
root 8.913210 16.090401 -3.828290 10.766300 -4.054230 -6.341840
lowerback -91.441803 23.522501 27.202999
upperback -21.891699 27.646200 31.772100
thorax 28.192200 13.868000 20.795500
lowerneck -168.617996 -59.489799 -139.634995
upperneck 158.016998 -76.782799 152.475006
head 88.873703 -30.209101 65.865700
rclavicle 0.000000 0.000000
rhumerus -444.051025 114.487999 -878.981995
rradius 494.616028
rwrist -235.496002
rhand -289.423004 -321.777985
rfingers 71.250198
rthumb -22.959499 -621.451965
lclavicle 0.000000 0.000000
lhumerus -510.898010 -65.099602 914.826965
lradius 215.944000
lwrist -4.936080
lhand -71.068298 -242.218002
lfingers 71.250198
lthumb 187.681000 48.927597
rfemur 218.294998 58.155998 284.174011
rtibia -0.000000
rfoot -39.888302 69.870300
rtoes -171.947998
lfemur -507.131012 87.938698 -172.877991
ltibia 390.162994
lfoot -1.102520 71.218903
ltoes -66.933701
236
root 8.945650 16.097300 -3.649770 10.733400 -3.961210 -6.099880
lowerback -90.180199 22.775900 24.912300
upperback -22.312201 26.971500 31.110899
thorax 26.995800 13.520700 21.238800
lowerneck -173.157990 -59.987103 -141.875000
upperneck 159.929993 -77.186897 155.539993
head 90.663406 -30.054600 67.367401
rclavicle -0.000000 -0.000000
rhumerus -447.164978 113.825996 -879.773010
rradius 489.611023
rwrist -237.667999
rhand -288.295990 -261.061981
rfingers 71.250198
rthumb -21.871399 -560.747986
lclavicle -0.000000 -0.000000
lhumerus -506.388000 -63.112900 912.471985
lradius 211.154007
lwrist -10.896799
lhand -67.973900 -239.787994
lfingers 71.250198
lthumb 190.657013 51.067501
rfemur 223.003998 55.308998 279.790009
rtibia 0.000000
rfoot -24.728100 65.887901
rtoes -173.018005
lfemur -507.190002 90.860596 -179.535995
ltibia 402.507019
lfoot -7.133260 65.377594
ltoes -53.760101
237
root 8.987230 16.111401 -3.453080 10.603300 -3.990610 -5.598300
lowerback -91.799301 22.636200 22.343700
upperback -20.387299 26.956600 28.764900
thorax 29.887501 13.504300 20.374201
lowerneck -179.136993 -61.923798 -142.522003
upperneck 160.235001 -79.055801 155.791992
head 92.224304 -30.696001 67.266899
rclavicle -0.000000 -0.000000
rhumerus -447.225983 109.343002 -878.477051
rradius 485.126984
rwrist -240.524002
rhand -285.080994 -233.360001
rfingers 71.250198
rthumb -18.766201 -533.075012
lclavicle -0.000000 -0.000000
lhumerus -500.007996 -62.142601 909.096008
lradius 208.904999
lwrist -17.076799
lhand -67.270599 -238.399994
lfingers 71.250198
lthumb 191.333008 52.388901
rfemur 229.302994 53.336800 271.687988
rtibia 0.000000
rfoot -7.620680 61.716801
rtoes -162.647995
lfemur -502.736023 93.249100 -188.934006
ltibia 411.209991
lfoot -14.567900 60.522999
ltoes -34.965000
238
root 9.018650 16.129400 -3.292930 10.416300 -4.096270 -5.328070
lowerback -87.496002 22.560001 20.366098
upperback -20.876801 27.294199 27.104399
thorax 26.981201 13.664599 19.580099
lowerneck -181.273987 -62.823799 -140.000000
upperneck 161.285004 -80.337601 153.347000
head 92.956001 -31.272499 65.742004
rclavicle 0.000000 -0.000000
rhumerus -449.234985 100.670006 -877.239014
rradius 478.751984
rwrist -237.462997
rhand -288.705017 -243.204010
rfingers 71.250198
rthumb -22.266600 -542.885010
lclavicle 0.000000 -0.000000
lhumerus -496.750000 -62.990898 905.474976
lradius 206.707001
lwrist -23.525600
lhand -70.999199 -238.251007
lfingers 71.250198
lthumb 187.747009 52.888699
rfemur 234.431992 52.194599 266.898010
rtibia -0.000000
rfoot 12.393301 55.303604
rtoes -158.751999
lfemur -497.890015 93.856201 -192.789993
ltibia 418.226013
lfoot -21.966200 57.894901
ltoes -14.384001
239
root 9.039710 16.145901 -3.174610 10.375500 -4.097200 -5.315870
lowerback -79.240997 21.837399 18.643801
upperback -22.571600 26.865999 27.204300
thorax 20.579300 13.451200 20.174698
lowerneck -187.184998 -63.703598 -137.013000
upperneck 165.662994 -81.340599 149.591995
head 95.380898 -31.640301 63.776699
rclavicle 0.000000 0.000000
rhumerus -450.274017 97.706696 -878.826965
rradius 469.878998
rwrist -238.339005
rhand -306.032990 -252.467010
rfingers 71.250198
rthumb -39.000801 -551.908020
lclavicle 0.000000 0.000000
lhumerus -490.996033 -60.063000 900.562012
lradius 201.091995
lwrist -35.728699
lhand -74.222298 -238.180008
lfingers 71.250198
lthumb 184.647003 53.256500
rfemur 236.257004 50.316399 266.005981
rtibia -0.000000
rfoot 35.282299 45.806396
rtoes -168.180008
lfemur -495.979004 94.762299 -193.451996
ltibia 422.627991
lfoot -25.862999 53.976997
ltoes -9.709169
